<?xml version="1.0" encoding="UTF-8"?>
<svg id="Layer_2" data-name="Layer 2" xmlns="http://www.w3.org/2000/svg" viewBox="0 0 1154.92 439.56">
  <defs>
    <style>
      .cls-1, .cls-2 {
        fill: #318c85;
        stroke-width: 0px;
      }

      .cls-2 {
        opacity: .3;
      }
    </style>
  </defs>
  <g id="Layer_1-2" data-name="Layer 1">
    <g>
      <g>
        <path class="cls-1" d="M185.86,264.62c-1.88.06-3.76.06-5.63,0,.93-.04,1.88-.05,2.81-.05s1.88.01,2.81.05Z"/>
        <path class="cls-2" d="M314.14,53.81c-71.75-71.75-188.49-71.75-260.24.01C19.14,88.57,0,134.78,0,183.93c0,30.99,7.6,60.8,21.93,87.32,4.81-8.71,10.37-17.1,16.7-25.1-8.31-19.4-12.67-40.47-12.67-62.22,0-42.22,16.44-81.9,46.3-111.76,30.81-30.81,71.28-46.22,111.76-46.22s80.96,15.41,111.77,46.22c29.86,29.86,46.3,69.56,46.3,111.77,0,21.1-4.11,41.58-11.95,60.51-.46,1.11-.92,2.21-1.41,3.3,6.2,7.99,11.68,16.43,16.44,25.22,14.94-26.95,22.89-57.39,22.89-89.04,0-49.15-19.14-95.36-53.91-130.13Z"/>
        <path class="cls-2" d="M280.63,87.34c-25.81-25.81-60.12-40.01-96.61-40.01s-70.79,14.21-96.6,40.01c-25.81,25.81-40.01,60.11-40.01,96.6,0,15.34,2.51,30.28,7.34,44.37,6.87-6.69,14.15-12.73,21.75-18.13-2.07-8.49-3.13-17.29-3.13-26.24,0-29.56,11.51-57.34,32.41-78.24,20.89-20.9,48.68-32.41,78.24-32.41s57.34,11.51,78.25,32.41c20.9,20.9,32.41,48.69,32.41,78.25,0,9.38-1.16,18.58-3.42,27.44,7.53,5.48,14.74,11.61,21.54,18.37,5.16-14.51,7.84-29.96,7.84-45.81,0-36.49-14.21-70.8-40.01-96.61Z"/>
        <path class="cls-1" d="M298.4,328.11c-7.43,5.91-15.2,11.14-23.25,15.73-1.31-8.8-3.87-17.44-7.71-25.63-2.98-6.41-6.74-12.53-11.27-18.26-2.22-2.82-4.64-5.55-7.25-8.15-3.89-3.9-8.06-7.38-12.43-10.44h-.01c-15.16-10.63-32.82-16.22-50.58-16.75-.01-.01-.02-.01-.04,0-.93-.04-1.88-.05-2.81-.05s-1.88.01-2.81.05c-.01-.01-.02-.01-.03,0h-.01c-17.45.52-34.76,5.9-49.72,16.15-4.68,3.2-9.15,6.87-13.3,11.04-2.36,2.36-4.55,4.8-6.59,7.33-4.6,5.67-8.42,11.77-11.47,18.13-.9,1.87-1.53,3.26-1.72,3.7-3.44,7.77-12.8,25.66-26.47,46.91-8.2,12.74-19.31,28.82-33.74,46.83-7.79-4.08-15.57-8.16-23.36-12.23,18.95-18.74,30-35.24,36.59-46.9,4.58-8.11,17.87-33.13,24.4-47.55.41-.92,1.55-3.45,3.32-6.76,3.39-6.31,7.38-12.38,11.99-18.11,2.69-3.35,5.59-6.59,8.69-9.7,3.1-3.1,6.33-5.99,9.68-8.67,8.2-6.6,17.08-11.95,26.39-16.04,30.59-13.49,65.75-13.49,96.34,0,9.7,4.27,18.94,9.9,27.44,16.9,2.97,2.43,5.86,5.05,8.63,7.82,3.44,3.44,6.61,7.03,9.52,10.76,4.56,5.78,8.48,11.89,11.81,18.25,4.29,8.21,7.56,16.82,9.79,25.65Z"/>
        <path class="cls-1" d="M222.66,363.8c.1-1.18.16-2.37.16-3.57,0-7.8-2.22-15.26-6.4-21.63-1.5-2.32-3.25-4.49-5.25-6.49-7.51-7.51-17.29-11.38-27.15-11.62-.32-.01-.65-.01-.98-.01h-.1c-10.16.03-20.3,3.9-28.03,11.63-1.9,1.9-3.57,3.95-5.01,6.11-3.86,5.82-5.93,10.9-6.3,11.86-4.79,12.37-20.94,40.54-25.15,47.58-6.57,11-17.13,25.94-34.23,41.9-7.66-4.02-15.33-8.03-22.99-12.05,16.65-18.54,28.15-34.88,35.65-46.64,11.35-17.79,21.89-38.16,25.57-46.39.23-.51.94-2.06,2-4.13,3.09-6.05,7.16-11.64,12.11-16.59.43-.43.85-.84,1.29-1.26,12.58-11.92,28.76-17.9,44.96-17.97.4,0,.81,0,1.22.01,16.17.24,32.28,6.39,44.74,18.46.26.24.52.5.77.75,5.12,5.12,9.3,10.95,12.44,17.24,3.87,7.81,6.17,16.37,6.69,25.25-8.49,3.17-17.19,5.69-25.99,7.57Z"/>
        <circle class="cls-1" cx="183.04" cy="176.97" r="55.07"/>
      </g>
      <g>
        <path class="cls-1" d="M426.9,262.11c-1.31-1.31-1.97-2.98-1.97-5.01v-125.69c0-2.03.65-3.69,1.97-5.01,1.31-1.31,2.98-1.97,5.01-1.97h35.76c8.7,0,16.48,1.94,23.33,5.81,6.85,3.87,12.19,9.24,16,16.09,3.81,6.86,5.72,14.69,5.72,23.51s-1.91,16.45-5.72,23.24c-3.82,6.79-9.15,12.1-16,15.91-6.86,3.82-14.63,5.72-23.33,5.72h-28.79v42.37c0,2.03-.66,3.7-1.97,5.01-1.31,1.31-2.98,1.97-5.01,1.97s-3.7-.65-5.01-1.97ZM467.66,201.33c6.08,0,11.5-1.34,16.27-4.02,4.77-2.68,8.49-6.41,11.17-11.17,2.68-4.77,4.02-10.19,4.02-16.27s-1.34-11.71-4.02-16.54c-2.68-4.83-6.41-8.61-11.17-11.35-4.77-2.74-10.19-4.11-16.27-4.11h-28.79v63.47h28.79Z"/>
        <path class="cls-1" d="M593.08,167.18c2.92,1.31,4.38,3.16,4.38,5.54,0,.72-.06,1.25-.18,1.61-.48,1.67-1.22,2.8-2.23,3.4-1.01.6-2.41.89-4.2.89-1.07,0-2.92-.12-5.54-.36-.96-.12-2.39-.18-4.29-.18-8.94,0-16.24,2.39-21.9,7.15-5.66,4.77-8.49,10.97-8.49,18.59v53.46c0,2.15-.6,3.82-1.79,5.01s-2.86,1.79-5.01,1.79-3.82-.6-5.01-1.79c-1.19-1.19-1.79-2.86-1.79-5.01v-84.21c0-2.15.6-3.81,1.79-5.01,1.19-1.19,2.86-1.79,5.01-1.79s3.81.6,5.01,1.79c1.19,1.19,1.79,2.86,1.79,5.01v7.87c3.46-5.01,7.87-8.88,13.23-11.62,5.36-2.74,11.14-4.11,17.34-4.11,5.01,0,8.97.66,11.89,1.97Z"/>
        <path class="cls-1" d="M633.13,258.54c-7.57-4.29-13.5-10.22-17.79-17.79-4.29-7.57-6.44-16.06-6.44-25.48s2.15-17.94,6.44-25.57c4.29-7.63,10.22-13.59,17.79-17.88,7.57-4.29,16.06-6.44,25.48-6.44s17.88,2.15,25.39,6.44c7.51,4.29,13.44,10.25,17.79,17.88,4.35,7.63,6.53,16.15,6.53,25.57s-2.15,17.91-6.44,25.48c-4.29,7.57-10.22,13.5-17.79,17.79-7.57,4.29-16.06,6.44-25.48,6.44s-17.91-2.15-25.48-6.44ZM677.2,247.63c5.48-3.22,9.77-7.66,12.87-13.32,3.1-5.66,4.65-12.01,4.65-19.04s-1.55-13.56-4.65-19.22c-3.1-5.66-7.39-10.1-12.87-13.32-5.48-3.22-11.68-4.83-18.59-4.83s-12.96,1.61-18.5,4.83c-5.54,3.22-9.9,7.66-13.05,13.32-3.16,5.66-4.74,12.07-4.74,19.22s1.58,13.38,4.74,19.04c3.16,5.66,7.51,10.1,13.05,13.32,5.54,3.22,11.71,4.83,18.5,4.83s13.11-1.61,18.59-4.83Z"/>
        <path class="cls-1" d="M764.9,144.83c-3.99,5.25-5.99,12.22-5.99,20.92v4.11h21.45c1.91,0,3.43.57,4.56,1.7,1.13,1.13,1.7,2.59,1.7,4.38,0,1.67-.57,3.07-1.7,4.2-1.13,1.13-2.65,1.7-4.56,1.7h-21.45v75.27c0,2.15-.63,3.84-1.88,5.1s-3.01,1.88-5.27,1.88c-1.91,0-3.49-.63-4.74-1.88s-1.88-2.95-1.88-5.1v-75.27h-11.44c-1.91,0-3.43-.56-4.56-1.7-1.13-1.13-1.7-2.53-1.7-4.2,0-1.79.56-3.25,1.7-4.38,1.13-1.13,2.65-1.7,4.56-1.7h11.44v-3.4c0-12.75,3.28-22.94,9.83-30.57,6.55-7.63,15.79-11.44,27.71-11.44,2.03,0,3.69.6,5.01,1.79,1.31,1.19,1.97,2.68,1.97,4.47s-.66,3.28-1.97,4.47c-1.31,1.19-2.98,1.79-5.01,1.79-7.87,0-13.8,2.62-17.79,7.87Z"/>
        <path class="cls-1" d="M890.14,172c0,1.07-.24,2.15-.71,3.22l-57.93,127.3c-1.07,2.74-2.8,4.11-5.18,4.11-1.19,0-2.27-.24-3.22-.71-2.74-1.07-4.11-2.86-4.11-5.36,0-1.07.24-2.15.71-3.22l17.7-39.15v-.18l-39.87-82.6c-.48-.95-.72-2.03-.72-3.22,0-2.5,1.31-4.29,3.93-5.36.95-.47,2.03-.71,3.22-.71,2.5,0,4.29,1.25,5.36,3.75l34.86,73.48,33.25-73.3c1.19-2.62,2.98-3.93,5.36-3.93,1.07,0,2.15.24,3.22.71,2.74,1.07,4.11,2.8,4.11,5.19Z"/>
        <path class="cls-1" d="M915.26,255.41c-4.59-5.78-6.88-13.2-6.88-22.26v-101.91c0-2.03.65-3.66,1.97-4.92,1.31-1.25,2.92-1.88,4.83-1.88,2.03,0,3.67.63,4.92,1.88,1.25,1.25,1.88,2.89,1.88,4.92v101.91c0,5.13,1.04,9.3,3.13,12.52,2.08,3.22,4.74,4.83,7.96,4.83h4.47c1.79,0,3.22.63,4.29,1.88,1.07,1.25,1.61,2.89,1.61,4.92s-.75,3.67-2.23,4.92c-1.49,1.25-3.43,1.88-5.81,1.88h-2.32c-7.27,0-13.2-2.89-17.79-8.67Z"/>
        <path class="cls-1" d="M962.73,263.9c-2.03-2.03-3.04-4.47-3.04-7.33s1.04-5.48,3.13-7.51c2.08-2.03,4.5-3.04,7.24-3.04s5.3,1.04,7.33,3.13c2.03,2.09,3.04,4.56,3.04,7.42s-1.01,5.3-3.04,7.33c-2.03,2.03-4.47,3.04-7.33,3.04s-5.3-1.01-7.33-3.04Z"/>
        <path class="cls-1" d="M1079.74,171.91c7.57,4.35,13.53,10.34,17.88,17.97,4.35,7.63,6.53,16.09,6.53,25.39v42.02c0,1.91-.66,3.52-1.97,4.83s-2.98,1.97-5.01,1.97-3.7-.63-5.01-1.88c-1.31-1.25-1.97-2.89-1.97-4.92v-10.73c-4.17,5.72-9.48,10.22-15.91,13.5-6.44,3.28-13.53,4.92-21.28,4.92-9.06,0-17.25-2.17-24.58-6.53-7.33-4.35-13.11-10.31-17.34-17.88-4.23-7.57-6.35-16-6.35-25.3s2.17-17.76,6.53-25.39c4.35-7.63,10.31-13.62,17.88-17.97,7.57-4.35,16-6.53,25.3-6.53s17.73,2.18,25.3,6.53ZM1072.86,247.63c5.48-3.22,9.8-7.66,12.96-13.32,3.16-5.66,4.74-12.01,4.74-19.04s-1.58-13.38-4.74-19.04c-3.16-5.66-7.48-10.13-12.96-13.41-5.48-3.28-11.62-4.92-18.42-4.92s-12.96,1.64-18.5,4.92c-5.54,3.28-9.9,7.75-13.05,13.41-3.16,5.66-4.74,12.01-4.74,19.04s1.58,13.38,4.74,19.04c3.16,5.66,7.51,10.1,13.05,13.32,5.54,3.22,11.71,4.83,18.5,4.83s12.93-1.61,18.42-4.83Z"/>
        <path class="cls-1" d="M1138.21,144.83c-1.85-1.91-2.77-4.23-2.77-6.97s.95-5.18,2.86-6.97c1.91-1.79,4.23-2.68,6.97-2.68s4.89.89,6.79,2.68c1.91,1.79,2.86,4.11,2.86,6.97s-.96,5.07-2.86,6.97c-1.91,1.91-4.23,2.86-6.97,2.86s-5.04-.95-6.88-2.86ZM1140.26,262.11c-1.31-1.31-1.97-2.98-1.97-5.01v-83.85c0-2.03.65-3.69,1.97-5.01,1.31-1.31,2.98-1.97,5.01-1.97s3.66.66,4.92,1.97c1.25,1.31,1.88,2.98,1.88,5.01v83.85c0,2.03-.63,3.7-1.88,5.01-1.25,1.31-2.89,1.97-4.92,1.97s-3.7-.65-5.01-1.97Z"/>
      </g>
    </g>
  </g>
</svg>